Coordinates
version=1
nRows=32
nColumns=22
inDegrees=yes

Units are S.I. units (second, meters, Newtons, ...)
If the header above contains a line with 'inDegrees', this indicates whether rotational values are in degrees (yes) or radians (no).

endheader
time	pelvis_tilt	pelvis_list	pelvis_rotation	pelvis_tx	pelvis_ty	pelvis_tz	hip_flexion_r	hip_adduction_r	hip_rotation_r	knee_angle_r	ankle_angle_r	subtalar_angle_r	hip_flexion_l	hip_adduction_l	hip_rotation_l	knee_angle_l	ankle_angle_l	subtalar_angle_l	lumbar_extension	lumbar_bending	lumbar_rotation
      2.80000000	    -10.85163420	     -3.58577665	    -22.12320610	     -0.21289688	      0.95374041	      0.41554797	     34.04306523	      7.18682260	      2.20926250	    -32.00870124	     12.03973967	      2.51706821	     16.69346160	     -7.72448762	     -0.59514426	    -64.38726761	      9.31434201	     -3.83236443	     -0.05516769	      8.79812851	      0.47183055
      2.81000000	    -10.96880753	     -3.97645803	    -21.32832116	     -0.20571229	      0.95527077	      0.41897471	     33.30695136	      7.33055495	      1.67915159	    -31.67212639	     12.47336263	      2.35066771	     18.14714788	     -8.35336220	     -0.87755774	    -65.97227103	      9.43492371	     -4.10659414	     -0.13006222	      9.10280967	      0.73932681
      2.82000000	    -11.03398523	     -4.28505418	    -20.52720210	     -0.19855429	      0.95681386	      0.42205413	     32.56818871	      7.37328830	      1.15636163	    -31.33720313	     12.89509984	      2.19905234	     19.56841606	     -8.76457550	     -1.07033163	    -67.28277706	      9.70135492	     -4.33090574	     -0.22690104	      9.32192842	      1.03179206
      2.83000000	    -11.07652130	     -4.50950798	    -19.73369327	     -0.19146150	      0.95830840	      0.42482289	     31.85632136	      7.32931022	      0.64558822	    -31.00964025	     13.30649010	      2.02808793	     20.98260788	     -8.97051166	     -1.19689515	    -68.33064675	     10.02244675	     -4.43743175	     -0.31781884	      9.46300001	      1.35854919
      2.84000000	    -11.05186492	     -4.70211488	    -18.94443402	     -0.18436613	      0.95987074	      0.42731403	     31.08099452	      7.22636482	      0.11506212	    -30.65043584	     13.70139821	      1.94165885	     22.30323061	     -9.02076657	     -1.27625400	    -69.10376119	     10.37157973	     -4.34365374	     -0.46797728	      9.56408982	      1.71246120
      2.85000000	    -11.02154432	     -4.85421270	    -18.17474103	     -0.17734672	      0.96135701	      0.42960428	     30.31772288	      7.09722081	     -0.38855916	    -30.28037431	     14.09320944	      1.84727719	     23.60284188	     -8.95442724	     -1.33401272	    -69.63660522	     10.69053584	     -4.05996731	     -0.60922050	      9.63159811	      2.09098323
      2.86000000	    -10.99483711	     -4.98871855	    -17.46128321	     -0.17039604	      0.96274587	      0.43180096	     29.57952989	      6.97338788	     -0.90535301	    -29.92137192	     14.42537045	      1.71612052	     24.87232513	     -8.85317817	     -1.44397945	    -69.95052923	     10.94101401	     -3.36802068	     -0.74081649	      9.68788268	      2.54888614
      2.87000000	    -10.91988432	     -5.13510992	    -16.75574274	     -0.16345538	      0.96414728	      0.43388887	     28.76643031	      6.86751585	     -1.37691929	    -29.51467819	     14.77421300	      1.62206334	     26.03814147	     -8.72338861	     -1.56063114	    -70.03447503	     11.21395655	     -2.75447961	     -0.92111266	      9.74129404	      2.99477650
      2.88000000	    -10.83262909	     -5.29101178	    -16.14087823	     -0.15658163	      0.96547051	      0.43606143	     27.95313843	      6.82264237	     -1.78851409	    -29.12649780	     15.09850387	      1.49171141	     27.12972775	     -8.66672794	     -1.81404740	    -69.92576938	     11.46981200	     -1.92800344	     -1.12177436	      9.79118736	      3.56082519
      2.89000000	    -10.72919846	     -5.48202033	    -15.52962773	     -0.14972467	      0.96675026	      0.43821967	     27.09789692	      6.83317839	     -2.16547182	    -28.69993505	     15.39749388	      1.36911209	     28.15286484	     -8.66984528	     -2.09922292	    -69.63444705	     11.78188935	     -1.26936268	     -1.33776280	      9.86133902	      4.11331772
      2.90000000	    -10.61507365	     -5.69406374	    -14.96198415	     -0.14289372	      0.96796453	      0.44044081	     26.23150239	      6.90032732	     -2.49970383	    -28.27396686	     15.67518018	      1.22539018	     29.10996247	     -8.76607485	     -2.48732860	    -69.18121116	     12.13261350	     -0.69299647	     -1.56366697	      9.93757193	      4.70836839
      2.91000000	    -10.49125439	     -5.92548770	    -14.40391319	     -0.13610769	      0.96911050	      0.44267146	     25.36004973	      7.00669773	     -2.82181107	    -27.85250159	     15.92459964	      1.06187294	     30.01809073	     -8.93944606	     -2.94025391	    -68.58561300	     12.51080400	     -0.26183921	     -1.80074957	     10.01719909	      5.31978350
      2.92000000	    -10.36832119	     -6.17208530	    -13.84928027	     -0.12934395	      0.97017406	      0.44489968	     24.49314622	      7.14887222	     -3.13061944	    -27.43016363	     16.15511783	      0.89147757	     30.88801695	     -9.18431999	     -3.45259637	    -67.85882810	     12.92394425	     -0.01973606	     -2.02880316	     10.09999144	      5.92190624
      2.93000000	    -10.23956850	     -6.42905059	    -13.29340558	     -0.12259917	      0.97116690	      0.44709133	     23.62773837	      7.31388849	     -3.43977685	    -27.01139789	     16.36569337	      0.70696812	     31.71511820	     -9.48304172	     -4.01390711	    -67.01031137	     13.34599394	      0.05595597	     -2.25788397	     10.18258475	      6.51562060
      2.94000000	    -10.10840250	     -6.69274317	    -12.73205356	     -0.11586173	      0.97208075	      0.44921404	     22.76646908	      7.49554505	     -3.74791757	    -26.59310967	     16.55674711	      0.51939934	     32.50531054	     -9.81911515	     -4.61248416	    -66.05137021	     13.76513331	     -0.03249552	     -2.48233027	     10.26673606	      7.09006728
      2.95000000	     -9.96982818	     -6.96049425	    -12.16087599	     -0.10912952	      0.97291908	      0.45123209	     21.90742127	      7.68416049	     -4.06733775	    -26.17952189	     16.73629480	      0.33189964	     33.25450974	    -10.17348655	     -5.23639496	    -64.98946595	     14.16646929	     -0.26404441	     -2.70982235	     10.35085020	      7.63977716
      2.96000000	     -9.82569328	     -7.23105670	    -11.57100496	     -0.10237221	      0.97368044	      0.45310282	     21.05086010	      7.87267542	     -4.40706457	    -25.77102962	     16.91048845	      0.15774162	     33.96200952	    -10.52487834	     -5.86613358	    -63.82537318	     14.53966733	     -0.59857935	     -2.93256351	     10.44006798	      8.16229144
      2.97000000	     -9.67712847	     -7.50376120	    -10.95903981	     -0.09559702	      0.97434975	      0.45480261	     20.19803016	      8.05884749	     -4.77341983	    -25.36572220	     17.08978040	      0.01218500	     34.63474500	    -10.86319010	     -6.49837261	    -62.57305232	     14.89127629	     -0.97378373	     -3.14966707	     10.53705317	      8.63632004
      2.98000000	     -9.51920154	     -7.77699639	    -10.31675081	     -0.08878892	      0.97493576	      0.45629349	     19.34111243	      8.23582784	     -5.17577031	    -24.95911251	     17.27513026	     -0.10175068	     35.26749862	    -11.16709296	     -7.11647310	    -61.23516673	     15.20990179	     -1.34504303	     -3.36415923	     10.63997508	      9.06469592
      2.99000000	     -9.35419660	     -8.04238341	     -9.64969714	     -0.08196433	      0.97543452	      0.45756411	     18.48853903	      8.39698896	     -5.61743093	    -24.55705621	     17.47275664	     -0.18389650	     35.86080831	    -11.42166191	     -7.72429830	    -59.81227376	     15.48767988	     -1.67723905	     -3.57572631	     10.74369134	      9.43823766
      3.00000000	     -9.17785792	     -8.30117591	     -8.95199135	     -0.07510891	      0.97585031	      0.45859585	     17.63331601	      8.54410325	     -6.09725583	    -24.15827921	     17.68679857	     -0.23364548	     36.41012032	    -11.61728021	     -8.31432075	    -58.31044515	     15.73032037	     -1.94542484	     -3.78299363	     10.85427295	      9.75394551
      3.01000000	     -8.99346750	     -8.53872148	     -8.23661124	     -0.06825311	      0.97618498	      0.45939405	     16.78568742	      8.66644093	     -6.60476481	    -23.76928412	     17.91269253	     -0.25699289	     36.91414528	    -11.73605376	     -8.88789297	    -56.72755656	     15.90900736	     -2.14445575	     -3.98901959	     10.95235633	     10.03655296
      3.02000000	     -8.80475643	     -8.75534133	     -7.51045123	     -0.06141147	      0.97643840	      0.45997793	     15.94870415	      8.76799400	     -7.13920462	    -23.38816137	     18.15747593	     -0.25757900	     37.37276157	    -11.78096422	     -9.44601967	    -55.06513353	     16.03534176	     -2.25722850	     -4.19437278	     11.03703689	     10.28401218
      3.03000000	     -8.60245645	     -8.94982988	     -6.78582783	     -0.05455079	      0.97664043	      0.46037736	     15.09895336	      8.85815999	     -7.65179215	    -22.99688572	     18.40915690	     -0.23407193	     37.76394719	    -11.76110761	    -10.00891205	    -53.32251213	     16.11060480	     -2.27354448	     -4.40523847	     11.10670760	     10.49978979
      3.04000000	     -8.40805633	     -9.12468153	     -6.05917403	     -0.04768772	      0.97674307	      0.46056943	     14.27731700	      8.92933379	     -8.20484821	    -22.62989072	     18.66095847	     -0.20397236	     38.11720134	    -11.67897034	    -10.57040076	    -51.51309611	     16.11177247	     -2.15747108	     -4.59981526	     11.17294059	     10.68339958
      3.05000000	     -8.21110480	     -9.28558113	     -5.34488913	     -0.04079939	      0.97678063	      0.46062477	     13.44770953	      9.00376953	     -8.72661467	    -22.24615082	     18.90752138	     -0.17101017	     38.40906947	    -11.55241639	    -11.13465503	    -49.63276290	     16.08788508	     -1.90645208	     -4.79238682	     11.22988686	     10.85281208
      3.06000000	     -8.04653781	     -9.42632528	     -4.62518168	     -0.03390648	      0.97667041	      0.46049334	     12.67483846	      9.05846940	     -9.30228480	    -21.89581159	     19.15131211	     -0.16939900	     38.68827887	    -11.36066454	    -11.67323346	    -47.69247889	     16.01136228	     -1.59958687	     -4.93726354	     11.27835545	     10.99051422
      3.07000000	     -7.83524663	     -9.59243455	     -3.94837966	     -0.02691738	      0.97658565	      0.46036060	     11.81030094	      9.17853153	     -9.75773968	    -21.47560321	     19.34585281	     -0.16266688	     38.85297385	    -11.21793402	    -12.27552601	    -45.71145886	     15.96191802	     -1.11428773	     -5.13559317	     11.34871530	     11.13474088
      3.08000000	     -7.68136680	     -9.75024619	     -3.25890288	     -0.01994021	      0.97629032	      0.46007312	     11.03827258	      9.28649825	    -10.29029171	    -21.10667474	     19.53089549	     -0.19171403	     39.04452550	    -11.02011400	    -12.81360301	    -43.69437259	     15.88201805	     -0.69923423	     -5.25634033	     11.41593974	     11.26234475
      3.09000000	     -7.48476002	     -9.95601093	     -2.61236744	     -0.01285036	      0.97598573	      0.45984114	     10.18070557	      9.48381932	    -10.70414939	    -20.67430299	     19.68053205	     -0.22210791	     39.14698974	    -10.91551559	    -13.42742904	    -41.68468475	     15.87126596	     -0.17078449	     -5.42226820	     11.52380719	     11.39183659
      3.10000000	     -7.33043176	    -10.17431057	     -1.95561725	     -0.00575054	      0.97549299	      0.45949778	      9.39281053	      9.69254375	    -11.17214297	    -20.28224016	     19.81233213	     -0.25592384	     39.27045341	    -10.79261616	    -13.98455542	    -39.67244702	     15.86553087	      0.23195836	     -5.52897337	     11.64580015	     11.52136801
      3.11000000	     -7.15442524	    -10.43679929	     -1.33005016	      0.00145283	      0.97493178	      0.45919739	      8.56476953	      9.97414195	    -11.55854659	    -19.86657263	     19.93384309	     -0.27130800	     39.34819408	    -10.76009680	    -14.62113634	    -37.70572819	     15.92793672	      0.61553333	     -5.65254471	     11.80324865	     11.65478793
